<svg baseProfile="full" height="768" version="1.1" width="1920" xmlns="http://www.w3.org/2000/svg"
     style="overflow: hidden; position: absolute; left: 0px; top: 0px;">


<!--    <polygon-->
<!--            points="0 75 39 75 39 105 67 105 67 75 115 75 115 105 146 105 146 75 195 75 195 105 220 105 220 75 275 75 275 199 307 199 307 229 328 229 328 199 366 199 366 229 395 229 395 199 441 199 441 405 0 329"-->
<!--            fill="grey"/>-->

    <!--mountain 1-->

    <!--ocean-->
    <polygon points="900 469 1920 469 1920 768 900 469" fill="#497E89" />

    <!--castle-->
    <polygon points="0 205 19 205 19 220 33 220 33 205 57 205 57 220 73 220 73 205 97 205 97 220 110 220 110 205 137 205 137 267 153 267 153 282 164 282 164 267 183 267 183 282 197 282 197 267 220 267 220 370 0 332" fill="grey"/>

    <!--door-->
    <path d="M 77 342 L 77 315 A 10 10 0 0 1 97 315 L 97 355" stroke="#3B4B5F" fill="#3B4B5F"/>

    <!--hillside-->
    <polygon points="0 329 1920 624 1920 768 0 768" fill="rgb(222,236,243)"/>

    <!--hillside-->
<!--    <polygon points="0 329 1920 624 1920 768 0 768" fill="#A5B16B"/>-->

    <!--path from castle-->
    <path d="M 40 334 C 60 350, 285 480, 1115 500 M 1129 502 C 885 540, 60 450, 27 332" stroke="#827964" fill="#827964"/>


</svg>

